<mxfile><diagram id="GggGmYNXwTOC-Uh1RycI" name="Page-1"><mxGraphModel dx="2877" dy="2437" grid="0" gridSize="10" guides="1" tooltips="1" connect="1" arrows="1" fold="1" page="0" pageScale="1" pageWidth="850" pageHeight="1100" math="0" shadow="0"><root><mxCell id="0"/><mxCell id="1" parent="0"/><mxCell id="88" value="" style="rounded=0;whiteSpace=wrap;html=1;" vertex="1" parent="1"><mxGeometry x="600" y="-440" width="480" height="440" as="geometry"/></mxCell><mxCell id="89" value="" style="rounded=0;whiteSpace=wrap;html=1;fillColor=#CC99FF;" vertex="1" parent="1"><mxGeometry x="600" y="-440" width="480" height="30" as="geometry"/></mxCell><mxCell id="96" value="" style="rounded=1;whiteSpace=wrap;html=1;labelBackgroundColor=none;labelBorderColor=none;fontSize=16;" vertex="1" parent="1"><mxGeometry x="920" y="-435" width="145" height="20" as="geometry"/></mxCell><mxCell id="17" value="로그인" style="edgeStyle=none;html=1;startArrow=classic;startFill=1;" parent="1" source="15" target="16" edge="1"><mxGeometry y="30" relative="1" as="geometry"><mxPoint as="offset"/></mxGeometry></mxCell><mxCell id="19" value="회원가입" style="edgeStyle=none;html=1;startArrow=classic;startFill=1;" parent="1" source="15" target="18" edge="1"><mxGeometry y="40" relative="1" as="geometry"><mxPoint as="offset"/></mxGeometry></mxCell><mxCell id="15" value="" style="rounded=0;whiteSpace=wrap;html=1;" parent="1" vertex="1"><mxGeometry x="40" y="80" width="480" height="440" as="geometry"/></mxCell><mxCell id="21" value="상세" style="edgeStyle=none;html=1;startArrow=classic;startFill=1;" parent="1" source="16" target="20" edge="1"><mxGeometry y="30" relative="1" as="geometry"><mxPoint as="offset"/></mxGeometry></mxCell><mxCell id="55" value="이미지 추가" style="edgeStyle=none;html=1;startArrow=classic;startFill=1;" parent="1" source="16" target="54" edge="1"><mxGeometry x="0.05" y="45" relative="1" as="geometry"><mxPoint as="offset"/></mxGeometry></mxCell><mxCell id="94" value="검색" style="edgeStyle=none;html=1;fontSize=16;startArrow=classic;startFill=1;" edge="1" parent="1" source="16" target="88"><mxGeometry y="-40" relative="1" as="geometry"><mxPoint as="offset"/></mxGeometry></mxCell><mxCell id="16" value="" style="rounded=0;whiteSpace=wrap;html=1;" parent="1" vertex="1"><mxGeometry x="600" y="80" width="480" height="440" as="geometry"/></mxCell><mxCell id="18" value="" style="rounded=0;whiteSpace=wrap;html=1;" parent="1" vertex="1"><mxGeometry x="40" y="600" width="480" height="440" as="geometry"/></mxCell><mxCell id="20" value="" style="rounded=0;whiteSpace=wrap;html=1;" parent="1" vertex="1"><mxGeometry x="1160" y="80" width="480" height="440" as="geometry"/></mxCell><mxCell id="22" value="" style="rounded=0;whiteSpace=wrap;html=1;fillColor=#CC99FF;" parent="1" vertex="1"><mxGeometry x="220" y="250" width="120" height="100" as="geometry"/></mxCell><mxCell id="23" value="" style="rounded=0;whiteSpace=wrap;html=1;fillColor=#CC99FF;fontColor=#ffffff;strokeColor=#3700CC;" parent="1" vertex="1"><mxGeometry x="220" y="735" width="120" height="170" as="geometry"/></mxCell><mxCell id="24" value="" style="rounded=0;whiteSpace=wrap;html=1;fillColor=#CC99FF;" parent="1" vertex="1"><mxGeometry x="600" y="80" width="480" height="30" as="geometry"/></mxCell><mxCell id="25" value="" style="rounded=0;whiteSpace=wrap;html=1;fillColor=#CC99FF;" parent="1" vertex="1"><mxGeometry x="1160" y="80" width="480" height="30" as="geometry"/></mxCell><mxCell id="28" value="" style="rounded=1;whiteSpace=wrap;html=1;" parent="1" vertex="1"><mxGeometry x="645" y="130" width="90" height="90" as="geometry"/></mxCell><mxCell id="29" value="" style="rounded=1;whiteSpace=wrap;html=1;" parent="1" vertex="1"><mxGeometry x="745" y="130" width="90" height="90" as="geometry"/></mxCell><mxCell id="30" value="" style="rounded=1;whiteSpace=wrap;html=1;" parent="1" vertex="1"><mxGeometry x="845" y="130" width="90" height="90" as="geometry"/></mxCell><mxCell id="31" value="" style="rounded=1;whiteSpace=wrap;html=1;" parent="1" vertex="1"><mxGeometry x="945" y="130" width="90" height="90" as="geometry"/></mxCell><mxCell id="32" value="" style="rounded=1;whiteSpace=wrap;html=1;" parent="1" vertex="1"><mxGeometry x="645" y="230" width="90" height="90" as="geometry"/></mxCell><mxCell id="33" value="" style="rounded=1;whiteSpace=wrap;html=1;" parent="1" vertex="1"><mxGeometry x="745" y="230" width="90" height="90" as="geometry"/></mxCell><mxCell id="34" value="" style="rounded=1;whiteSpace=wrap;html=1;" parent="1" vertex="1"><mxGeometry x="845" y="230" width="90" height="90" as="geometry"/></mxCell><mxCell id="35" value="" style="rounded=1;whiteSpace=wrap;html=1;" parent="1" vertex="1"><mxGeometry x="945" y="230" width="90" height="90" as="geometry"/></mxCell><mxCell id="39" value="" style="rounded=1;whiteSpace=wrap;html=1;" parent="1" vertex="1"><mxGeometry x="945" y="330" width="90" height="90" as="geometry"/></mxCell><mxCell id="41" value="" style="html=1;shadow=0;dashed=0;shape=mxgraph.bootstrap.rrect;rSize=5;strokeColor=#DEE2E6;html=1;whiteSpace=wrap;fillColor=#ffffff;fontColor=#0085FC;fontSize=14;" parent="1" vertex="1"><mxGeometry x="730" y="470" width="220" height="30" as="geometry"/></mxCell><mxCell id="42" value="Previous" style="strokeColor=inherit;fillColor=inherit;gradientColor=inherit;html=1;shadow=0;dashed=0;shape=mxgraph.bootstrap.leftButton;rSize=5;perimeter=none;whiteSpace=wrap;resizeHeight=1;fontColor=#6C767D;fontSize=14;" parent="41" vertex="1"><mxGeometry width="70" height="30" relative="1" as="geometry"/></mxCell><mxCell id="43" value="1" style="strokeColor=inherit;fillColor=inherit;gradientColor=inherit;fontColor=inherit;html=1;shadow=0;dashed=0;perimeter=none;whiteSpace=wrap;resizeHeight=1;fontSize=14;" parent="41" vertex="1"><mxGeometry width="30" height="30" relative="1" as="geometry"><mxPoint x="70" as="offset"/></mxGeometry></mxCell><mxCell id="44" value="2" style="html=1;shadow=0;dashed=0;perimeter=none;whiteSpace=wrap;resizeHeight=1;fillColor=#0085FC;strokeColor=none;fontColor=#ffffff;fontSize=14;" parent="41" vertex="1"><mxGeometry width="30" height="30" relative="1" as="geometry"><mxPoint x="100" as="offset"/></mxGeometry></mxCell><mxCell id="45" value="3" style="strokeColor=inherit;fillColor=inherit;gradientColor=inherit;fontColor=inherit;html=1;shadow=0;dashed=0;perimeter=none;whiteSpace=wrap;resizeHeight=1;fontSize=14;" parent="41" vertex="1"><mxGeometry width="30" height="30" relative="1" as="geometry"><mxPoint x="130" as="offset"/></mxGeometry></mxCell><mxCell id="46" value="Next" style="strokeColor=inherit;fillColor=inherit;gradientColor=inherit;fontColor=inherit;html=1;shadow=0;dashed=0;shape=mxgraph.bootstrap.rightButton;rSize=5;perimeter=none;whiteSpace=wrap;resizeHeight=1;fontSize=14;" parent="41" vertex="1"><mxGeometry x="1" width="60" height="30" relative="1" as="geometry"><mxPoint x="-60" as="offset"/></mxGeometry></mxCell><mxCell id="47" value="" style="rounded=1;whiteSpace=wrap;html=1;" parent="1" vertex="1"><mxGeometry x="645" y="330" width="90" height="90" as="geometry"/></mxCell><mxCell id="48" value="" style="rounded=1;whiteSpace=wrap;html=1;" parent="1" vertex="1"><mxGeometry x="745" y="330" width="90" height="90" as="geometry"/></mxCell><mxCell id="49" value="" style="rounded=1;whiteSpace=wrap;html=1;" parent="1" vertex="1"><mxGeometry x="845" y="330" width="90" height="90" as="geometry"/></mxCell><mxCell id="52" value="" style="rounded=0;whiteSpace=wrap;html=1;fillColor=#a20025;fontColor=#ffffff;strokeColor=#6F0000;" parent="1" vertex="1"><mxGeometry x="1318" y="132" width="164" height="140" as="geometry"/></mxCell><mxCell id="54" value="" style="rounded=0;whiteSpace=wrap;html=1;" parent="1" vertex="1"><mxGeometry x="600" y="600" width="480" height="440" as="geometry"/></mxCell><mxCell id="56" value="" style="rounded=0;whiteSpace=wrap;html=1;fillColor=#CC99FF;" parent="1" vertex="1"><mxGeometry x="600" y="600" width="480" height="30" as="geometry"/></mxCell><mxCell id="62" value="&lt;div&gt;- 기능&lt;br&gt;&lt;/div&gt;&lt;ol style=&quot;font-size: 16px&quot;&gt;&lt;li style=&quot;font-size: 16px&quot;&gt;로그인 / 회원 가입&lt;/li&gt;&lt;li style=&quot;font-size: 16px&quot;&gt;태그 별 이미지 조회&lt;/li&gt;&lt;li style=&quot;font-size: 16px&quot;&gt;날짜 별 이미지 조회&lt;/li&gt;&lt;li style=&quot;font-size: 16px&quot;&gt;이미지 검색(날짜, 제목, 태그)&lt;/li&gt;&lt;li style=&quot;font-size: 16px&quot;&gt;이미지 상세보기 시 댓글 조회 및 작성&amp;nbsp;&lt;/li&gt;&lt;/ol&gt;" style="text;strokeColor=default;fillColor=none;html=1;whiteSpace=wrap;verticalAlign=middle;overflow=hidden;labelBorderColor=none;labelBackgroundColor=none;fontSize=16;" parent="1" vertex="1"><mxGeometry x="1190" y="608" width="337" height="200" as="geometry"/></mxCell><mxCell id="63" value="" style="ellipse;whiteSpace=wrap;html=1;aspect=fixed;labelBackgroundColor=none;labelBorderColor=none;fontSize=16;" vertex="1" parent="1"><mxGeometry x="1049" y="81.5" width="27" height="27" as="geometry"/></mxCell><mxCell id="64" value="" style="ellipse;whiteSpace=wrap;html=1;aspect=fixed;labelBackgroundColor=none;labelBorderColor=none;fontSize=16;" vertex="1" parent="1"><mxGeometry x="1016" y="81.5" width="27" height="27" as="geometry"/></mxCell><mxCell id="71" value="" style="ellipse;whiteSpace=wrap;html=1;aspect=fixed;labelBackgroundColor=none;labelBorderColor=none;fontSize=16;" vertex="1" parent="1"><mxGeometry x="1609" y="81.5" width="27" height="27" as="geometry"/></mxCell><mxCell id="72" value="" style="ellipse;whiteSpace=wrap;html=1;aspect=fixed;labelBackgroundColor=none;labelBorderColor=none;fontSize=16;" vertex="1" parent="1"><mxGeometry x="1576" y="81.5" width="27" height="27" as="geometry"/></mxCell><mxCell id="73" value="" style="rounded=1;whiteSpace=wrap;html=1;labelBackgroundColor=none;labelBorderColor=none;fontSize=16;" vertex="1" parent="1"><mxGeometry x="605" y="84.5" width="50" height="21" as="geometry"/></mxCell><mxCell id="74" value="" style="rounded=1;whiteSpace=wrap;html=1;labelBackgroundColor=none;labelBorderColor=none;fontSize=16;" vertex="1" parent="1"><mxGeometry x="1165" y="84.5" width="50" height="21" as="geometry"/></mxCell><mxCell id="75" value="" style="rounded=1;whiteSpace=wrap;html=1;labelBackgroundColor=none;labelBorderColor=none;fontSize=16;" vertex="1" parent="1"><mxGeometry x="605" y="604.5" width="50" height="21" as="geometry"/></mxCell><mxCell id="76" value="&lt;span style=&quot;color: rgba(0 , 0 , 0 , 0) ; font-family: monospace ; font-size: 0px&quot;&gt;%3CmxGraphModel%3E%3Croot%3E%3CmxCell%20id%3D%220%22%2F%3E%3CmxCell%20id%3D%221%22%20parent%3D%220%22%2F%3E%3CmxCell%20id%3D%222%22%20value%3D%22%22%20style%3D%22rounded%3D1%3BwhiteSpace%3Dwrap%3Bhtml%3D1%3BlabelBackgroundColor%3Dnone%3BlabelBorderColor%3Dnone%3BfontSize%3D16%3B%22%20vertex%3D%221%22%20parent%3D%221%22%3E%3CmxGeometry%20x%3D%22605%22%20y%3D%2284.5%22%20width%3D%2250%22%20height%3D%2221%22%20as%3D%22geometry%22%2F%3E%3C%2FmxCell%3E%3C%2Froot%3E%3C%2FmxGraphModel%3E&lt;/span&gt;" style="rounded=0;whiteSpace=wrap;html=1;labelBackgroundColor=none;labelBorderColor=none;fontSize=16;fillColor=#0050ef;fontColor=#ffffff;strokeColor=#001DBC;" vertex="1" parent="1"><mxGeometry x="1318" y="281" width="164" height="17" as="geometry"/></mxCell><mxCell id="77" value="&lt;span style=&quot;color: rgba(0 , 0 , 0 , 0) ; font-family: monospace ; font-size: 0px&quot;&gt;%3CmxGraphModel%3E%3Croot%3E%3CmxCell%20id%3D%220%22%2F%3E%3CmxCell%20id%3D%221%22%20parent%3D%220%22%2F%3E%3CmxCell%20id%3D%222%22%20value%3D%22%22%20style%3D%22rounded%3D1%3BwhiteSpace%3Dwrap%3Bhtml%3D1%3BlabelBackgroundColor%3Dnone%3BlabelBorderColor%3Dnone%3BfontSize%3D16%3B%22%20vertex%3D%221%22%20parent%3D%221%22%3E%3CmxGeometry%20x%3D%22605%22%20y%3D%2284.5%22%20width%3D%2250%22%20height%3D%2221%22%20as%3D%22geometry%22%2F%3E%3C%2FmxCell%3E%3C%2Froot%3E%3C%2FmxGraphModel%3E&lt;/span&gt;" style="rounded=0;whiteSpace=wrap;html=1;labelBackgroundColor=none;labelBorderColor=none;fontSize=16;" vertex="1" parent="1"><mxGeometry x="1318" y="298" width="164" height="185" as="geometry"/></mxCell><mxCell id="78" value="" style="rounded=0;whiteSpace=wrap;html=1;labelBackgroundColor=none;labelBorderColor=none;fontSize=16;" vertex="1" parent="1"><mxGeometry x="1322" y="304" width="156" height="28" as="geometry"/></mxCell><mxCell id="79" value="" style="rounded=0;whiteSpace=wrap;html=1;labelBackgroundColor=none;labelBorderColor=none;fontSize=16;" vertex="1" parent="1"><mxGeometry x="1337" y="338" width="141" height="28" as="geometry"/></mxCell><mxCell id="80" value="" style="rounded=0;whiteSpace=wrap;html=1;labelBackgroundColor=none;labelBorderColor=none;fontSize=16;" vertex="1" parent="1"><mxGeometry x="1337" y="372" width="141" height="28" as="geometry"/></mxCell><mxCell id="81" value="" style="rounded=0;whiteSpace=wrap;html=1;labelBackgroundColor=none;labelBorderColor=none;fontSize=16;" vertex="1" parent="1"><mxGeometry x="1322" y="428" width="156" height="28" as="geometry"/></mxCell><mxCell id="83" value="&lt;span style=&quot;color: rgba(0 , 0 , 0 , 0) ; font-family: monospace ; font-size: 0px&quot;&gt;%3CmxGraphModel%3E%3Croot%3E%3CmxCell%20id%3D%220%22%2F%3E%3CmxCell%20id%3D%221%22%20parent%3D%220%22%2F%3E%3CmxCell%20id%3D%222%22%20value%3D%22%22%20style%3D%22rounded%3D1%3BwhiteSpace%3Dwrap%3Bhtml%3D1%3BlabelBackgroundColor%3Dnone%3BlabelBorderColor%3Dnone%3BfontSize%3D16%3B%22%20vertex%3D%221%22%20parent%3D%221%22%3E%3CmxGeometry%20x%3D%22605%22%20y%3D%2284.5%22%20width%3D%2250%22%20height%3D%2221%22%20as%3D%22geometry%22%2F%3E%3C%2FmxCell%3E%3C%2Froot%3E%3C%2FmxGraphModel%3E&lt;/span&gt;" style="rounded=0;whiteSpace=wrap;html=1;labelBackgroundColor=none;labelBorderColor=none;fontSize=16;fillColor=#0050ef;fontColor=#ffffff;strokeColor=#001DBC;" vertex="1" parent="1"><mxGeometry x="1337" y="405" width="141" height="17" as="geometry"/></mxCell><mxCell id="85" value="" style="rounded=0;whiteSpace=wrap;html=1;fillColor=#CC99FF;fontColor=#ffffff;strokeColor=#3700CC;" vertex="1" parent="1"><mxGeometry x="773" y="722" width="129" height="170" as="geometry"/></mxCell><mxCell id="86" value="" style="ellipse;whiteSpace=wrap;html=1;aspect=fixed;labelBackgroundColor=none;labelBorderColor=none;fontSize=16;" vertex="1" parent="1"><mxGeometry x="1049" y="600" width="27" height="27" as="geometry"/></mxCell><mxCell id="87" value="" style="ellipse;whiteSpace=wrap;html=1;aspect=fixed;labelBackgroundColor=none;labelBorderColor=none;fontSize=16;" vertex="1" parent="1"><mxGeometry x="1016" y="600" width="27" height="27" as="geometry"/></mxCell><mxCell id="90" value="" style="rounded=1;whiteSpace=wrap;html=1;labelBackgroundColor=none;labelBorderColor=none;fontSize=16;" vertex="1" parent="1"><mxGeometry x="605" y="-435.5" width="50" height="21" as="geometry"/></mxCell><mxCell id="92" value="" style="ellipse;whiteSpace=wrap;html=1;aspect=fixed;labelBackgroundColor=none;labelBorderColor=none;fontSize=16;" vertex="1" parent="1"><mxGeometry x="1049" y="-438.5" width="27" height="27" as="geometry"/></mxCell><mxCell id="93" value="" style="ellipse;whiteSpace=wrap;html=1;aspect=fixed;labelBackgroundColor=none;labelBorderColor=none;fontSize=16;" vertex="1" parent="1"><mxGeometry x="1016" y="-438.5" width="27" height="27" as="geometry"/></mxCell><mxCell id="97" value="" style="rounded=1;whiteSpace=wrap;html=1;" vertex="1" parent="1"><mxGeometry x="645" y="130" width="90" height="90" as="geometry"/></mxCell><mxCell id="98" value="" style="rounded=1;whiteSpace=wrap;html=1;" vertex="1" parent="1"><mxGeometry x="745" y="130" width="90" height="90" as="geometry"/></mxCell><mxCell id="99" value="" style="rounded=1;whiteSpace=wrap;html=1;" vertex="1" parent="1"><mxGeometry x="845" y="130" width="90" height="90" as="geometry"/></mxCell><mxCell id="100" value="" style="rounded=1;whiteSpace=wrap;html=1;" vertex="1" parent="1"><mxGeometry x="945" y="130" width="90" height="90" as="geometry"/></mxCell><mxCell id="101" value="" style="rounded=1;whiteSpace=wrap;html=1;" vertex="1" parent="1"><mxGeometry x="945" y="230" width="90" height="90" as="geometry"/></mxCell><mxCell id="102" value="" style="rounded=1;whiteSpace=wrap;html=1;" vertex="1" parent="1"><mxGeometry x="645" y="130" width="90" height="90" as="geometry"/></mxCell><mxCell id="103" value="" style="rounded=1;whiteSpace=wrap;html=1;" vertex="1" parent="1"><mxGeometry x="745" y="130" width="90" height="90" as="geometry"/></mxCell><mxCell id="104" value="" style="rounded=1;whiteSpace=wrap;html=1;" vertex="1" parent="1"><mxGeometry x="845" y="130" width="90" height="90" as="geometry"/></mxCell><mxCell id="105" value="" style="rounded=1;whiteSpace=wrap;html=1;" vertex="1" parent="1"><mxGeometry x="945" y="130" width="90" height="90" as="geometry"/></mxCell><mxCell id="106" value="" style="rounded=1;whiteSpace=wrap;html=1;" vertex="1" parent="1"><mxGeometry x="945" y="230" width="90" height="90" as="geometry"/></mxCell><mxCell id="107" value="" style="rounded=1;whiteSpace=wrap;html=1;" vertex="1" parent="1"><mxGeometry x="645" y="130" width="90" height="90" as="geometry"/></mxCell><mxCell id="108" value="" style="rounded=1;whiteSpace=wrap;html=1;" vertex="1" parent="1"><mxGeometry x="745" y="130" width="90" height="90" as="geometry"/></mxCell><mxCell id="109" value="" style="rounded=1;whiteSpace=wrap;html=1;" vertex="1" parent="1"><mxGeometry x="845" y="130" width="90" height="90" as="geometry"/></mxCell><mxCell id="110" value="" style="rounded=1;whiteSpace=wrap;html=1;" vertex="1" parent="1"><mxGeometry x="945" y="130" width="90" height="90" as="geometry"/></mxCell><mxCell id="111" value="" style="rounded=1;whiteSpace=wrap;html=1;" vertex="1" parent="1"><mxGeometry x="945" y="230" width="90" height="90" as="geometry"/></mxCell><mxCell id="112" value="" style="rounded=1;whiteSpace=wrap;html=1;" vertex="1" parent="1"><mxGeometry x="645" y="230" width="90" height="90" as="geometry"/></mxCell><mxCell id="113" value="" style="rounded=1;whiteSpace=wrap;html=1;" vertex="1" parent="1"><mxGeometry x="745" y="230" width="90" height="90" as="geometry"/></mxCell><mxCell id="114" value="" style="rounded=1;whiteSpace=wrap;html=1;" vertex="1" parent="1"><mxGeometry x="845" y="230" width="90" height="90" as="geometry"/></mxCell><mxCell id="115" value="" style="rounded=1;whiteSpace=wrap;html=1;" vertex="1" parent="1"><mxGeometry x="845" y="330" width="90" height="90" as="geometry"/></mxCell><mxCell id="116" value="" style="rounded=1;whiteSpace=wrap;html=1;" vertex="1" parent="1"><mxGeometry x="945" y="330" width="90" height="90" as="geometry"/></mxCell><mxCell id="117" value="" style="rounded=1;whiteSpace=wrap;html=1;" vertex="1" parent="1"><mxGeometry x="645" y="130" width="90" height="90" as="geometry"/></mxCell><mxCell id="118" value="" style="rounded=1;whiteSpace=wrap;html=1;" vertex="1" parent="1"><mxGeometry x="745" y="130" width="90" height="90" as="geometry"/></mxCell><mxCell id="119" value="" style="rounded=1;whiteSpace=wrap;html=1;" vertex="1" parent="1"><mxGeometry x="845" y="130" width="90" height="90" as="geometry"/></mxCell><mxCell id="120" value="" style="rounded=1;whiteSpace=wrap;html=1;" vertex="1" parent="1"><mxGeometry x="945" y="130" width="90" height="90" as="geometry"/></mxCell><mxCell id="121" value="" style="rounded=1;whiteSpace=wrap;html=1;" vertex="1" parent="1"><mxGeometry x="945" y="230" width="90" height="90" as="geometry"/></mxCell><mxCell id="122" value="" style="rounded=1;whiteSpace=wrap;html=1;" vertex="1" parent="1"><mxGeometry x="645" y="230" width="90" height="90" as="geometry"/></mxCell><mxCell id="123" value="" style="rounded=1;whiteSpace=wrap;html=1;" vertex="1" parent="1"><mxGeometry x="745" y="230" width="90" height="90" as="geometry"/></mxCell><mxCell id="124" value="" style="rounded=1;whiteSpace=wrap;html=1;" vertex="1" parent="1"><mxGeometry x="845" y="230" width="90" height="90" as="geometry"/></mxCell><mxCell id="125" value="" style="rounded=1;whiteSpace=wrap;html=1;" vertex="1" parent="1"><mxGeometry x="845" y="330" width="90" height="90" as="geometry"/></mxCell><mxCell id="126" value="" style="rounded=1;whiteSpace=wrap;html=1;" vertex="1" parent="1"><mxGeometry x="945" y="330" width="90" height="90" as="geometry"/></mxCell><mxCell id="127" value="" style="rounded=1;whiteSpace=wrap;html=1;" vertex="1" parent="1"><mxGeometry x="645" y="330" width="90" height="90" as="geometry"/></mxCell><mxCell id="128" value="" style="html=1;shadow=0;dashed=0;shape=mxgraph.bootstrap.rrect;rSize=5;strokeColor=#DEE2E6;html=1;whiteSpace=wrap;fillColor=#ffffff;fontColor=#0085FC;fontSize=14;" vertex="1" parent="1"><mxGeometry x="727.5" y="-50" width="220" height="30" as="geometry"/></mxCell><mxCell id="129" value="Previous" style="strokeColor=inherit;fillColor=inherit;gradientColor=inherit;html=1;shadow=0;dashed=0;shape=mxgraph.bootstrap.leftButton;rSize=5;perimeter=none;whiteSpace=wrap;resizeHeight=1;fontColor=#6C767D;fontSize=14;" vertex="1" parent="128"><mxGeometry width="70" height="30" relative="1" as="geometry"/></mxCell><mxCell id="130" value="1" style="strokeColor=inherit;fillColor=inherit;gradientColor=inherit;fontColor=inherit;html=1;shadow=0;dashed=0;perimeter=none;whiteSpace=wrap;resizeHeight=1;fontSize=14;" vertex="1" parent="128"><mxGeometry width="30" height="30" relative="1" as="geometry"><mxPoint x="70" as="offset"/></mxGeometry></mxCell><mxCell id="131" value="2" style="html=1;shadow=0;dashed=0;perimeter=none;whiteSpace=wrap;resizeHeight=1;fillColor=#0085FC;strokeColor=none;fontColor=#ffffff;fontSize=14;" vertex="1" parent="128"><mxGeometry width="30" height="30" relative="1" as="geometry"><mxPoint x="100" as="offset"/></mxGeometry></mxCell><mxCell id="132" value="3" style="strokeColor=inherit;fillColor=inherit;gradientColor=inherit;fontColor=inherit;html=1;shadow=0;dashed=0;perimeter=none;whiteSpace=wrap;resizeHeight=1;fontSize=14;" vertex="1" parent="128"><mxGeometry width="30" height="30" relative="1" as="geometry"><mxPoint x="130" as="offset"/></mxGeometry></mxCell><mxCell id="133" value="Next" style="strokeColor=inherit;fillColor=inherit;gradientColor=inherit;fontColor=inherit;html=1;shadow=0;dashed=0;shape=mxgraph.bootstrap.rightButton;rSize=5;perimeter=none;whiteSpace=wrap;resizeHeight=1;fontSize=14;" vertex="1" parent="128"><mxGeometry x="1" width="60" height="30" relative="1" as="geometry"><mxPoint x="-60" as="offset"/></mxGeometry></mxCell><mxCell id="134" value="" style="rounded=1;whiteSpace=wrap;html=1;" vertex="1" parent="1"><mxGeometry x="742.5" y="-190" width="90" height="90" as="geometry"/></mxCell><mxCell id="135" value="" style="rounded=1;whiteSpace=wrap;html=1;" vertex="1" parent="1"><mxGeometry x="642.5" y="-390" width="90" height="90" as="geometry"/></mxCell><mxCell id="136" value="" style="rounded=1;whiteSpace=wrap;html=1;" vertex="1" parent="1"><mxGeometry x="742.5" y="-390" width="90" height="90" as="geometry"/></mxCell><mxCell id="137" value="" style="rounded=1;whiteSpace=wrap;html=1;" vertex="1" parent="1"><mxGeometry x="842.5" y="-390" width="90" height="90" as="geometry"/></mxCell><mxCell id="138" value="" style="rounded=1;whiteSpace=wrap;html=1;" vertex="1" parent="1"><mxGeometry x="942.5" y="-390" width="90" height="90" as="geometry"/></mxCell><mxCell id="139" value="" style="rounded=1;whiteSpace=wrap;html=1;" vertex="1" parent="1"><mxGeometry x="942.5" y="-290" width="90" height="90" as="geometry"/></mxCell><mxCell id="140" value="" style="rounded=1;whiteSpace=wrap;html=1;" vertex="1" parent="1"><mxGeometry x="642.5" y="-290" width="90" height="90" as="geometry"/></mxCell><mxCell id="141" value="" style="rounded=1;whiteSpace=wrap;html=1;" vertex="1" parent="1"><mxGeometry x="742.5" y="-290" width="90" height="90" as="geometry"/></mxCell><mxCell id="142" value="" style="rounded=1;whiteSpace=wrap;html=1;" vertex="1" parent="1"><mxGeometry x="842.5" y="-290" width="90" height="90" as="geometry"/></mxCell><mxCell id="143" value="" style="rounded=1;whiteSpace=wrap;html=1;" vertex="1" parent="1"><mxGeometry x="842.5" y="-190" width="90" height="90" as="geometry"/></mxCell><mxCell id="144" value="" style="rounded=1;whiteSpace=wrap;html=1;" vertex="1" parent="1"><mxGeometry x="940" y="-190" width="92.5" height="90" as="geometry"/></mxCell><mxCell id="145" value="" style="rounded=1;whiteSpace=wrap;html=1;" vertex="1" parent="1"><mxGeometry x="642.5" y="-190" width="90" height="90" as="geometry"/></mxCell></root></mxGraphModel></diagram></mxfile>